<?xml version="1.0" encoding="UTF-8"?>
<svg version="1.1" xmlns="http://www.w3.org/2000/svg" width="1356" height="800" fill="green">
<path d="M0 0 C1.29804565 -0.00315216 2.59609131 -0.00630432 3.93347168 -0.009552 C5.36124709 -0.00776222 6.78902219 -0.00571127 8.21679688 -0.00341797 C9.67028825 -0.00409105 11.12377952 -0.00506111 12.57727051 -0.00631714 C15.62720814 -0.00779393 18.67711654 -0.00564017 21.72705078 -0.00097656 C25.64485247 0.00472073 29.56258566 0.00144162 33.48038483 -0.00454903 C36.48285441 -0.00815515 39.48530764 -0.00701582 42.48777771 -0.00442123 C43.93273425 -0.00375211 45.37769226 -0.00457989 46.82264709 -0.00690079 C48.83879571 -0.00942812 50.8549495 -0.00489598 52.87109375 0 C54.59531555 0.00119339 54.59531555 0.00119339 56.35437012 0.00241089 C58.93554688 0.12939453 58.93554688 0.12939453 59.93554688 1.12939453 C60.03314782 2.68761813 60.0604513 4.25028461 60.06040406 5.81156188 C60.06280365 6.83276094 60.06520323 7.85395999 60.06767553 8.90610448 C60.06522363 10.04394559 60.06277172 11.18178671 60.06024551 12.35410786 C60.06226187 14.15616154 60.06226187 14.15616154 60.06431895 15.99462035 C60.06707721 19.3593996 60.06531117 22.72412401 60.06174547 26.08889908 C60.05898353 29.73827333 60.06202951 33.38764316 60.06439281 37.03701705 C60.0677553 43.4432706 60.06746173 49.84951595 60.0648365 56.25576973 C60.06098179 65.78238248 60.06289807 75.30898773 60.06625066 84.83560037 C60.07148427 99.87710258 60.07353835 114.918603 60.07361554 129.96010605 C60.07386631 153.84300558 60.08553199 177.72588971 60.10122612 201.60878362 C60.10455089 206.68812973 60.10777261 211.76747591 60.11100698 216.84682208 C60.11494337 223.01421234 60.11888991 229.1816026 60.1228682 235.34899283 C60.13785067 258.6233675 60.15146293 281.89774279 60.16357422 305.17211914 C60.16441146 306.76807541 60.16441146 306.76807541 60.16526562 308.39627322 C60.18325922 342.88750576 60.18759002 377.37872576 60.1858752 411.86996237 C60.18420617 447.31544287 60.19910663 482.76088192 60.23380003 518.20634624 C60.23868567 523.21224242 60.24336737 528.21813877 60.24791718 533.22403526 C60.24926648 534.70188134 60.24926648 534.70188134 60.25064304 536.20958289 C60.26460859 552.0710579 60.26085648 567.93248177 60.25030525 583.79395739 C60.24003483 599.7379914 60.24769135 615.68193551 60.27372298 631.62595234 C60.28862863 641.09942808 60.28958126 650.57266697 60.27058429 660.04613664 C60.25925803 666.37618755 60.26606677 672.70605219 60.28753152 679.03607638 C60.29923861 682.6417745 60.30313012 686.24700352 60.28485492 689.85268495 C60.265323 693.74217739 60.28461369 697.63094259 60.30748367 701.52042866 C60.2956671 702.63251695 60.28385053 703.74460523 60.27167588 704.89039317 C60.37226283 713.38823701 62.11180295 721.85773837 67.93699975 728.36529701 C72.90050068 732.74652955 78.42038717 734.30141195 84.93554688 734.12939453 C90.97825919 733.01258962 95.74797501 730.70650796 99.93554688 726.12939453 C104.6691098 717.05673227 105.08313421 708.36164012 105.07141876 698.32118511 C105.07396138 697.1175047 105.07650401 695.91382429 105.07912368 694.67366871 C105.08519138 691.3257964 105.08679835 687.97797516 105.08655091 684.63010088 C105.08737929 680.99051803 105.09398061 677.35094498 105.09986162 673.71136743 C105.10937951 667.3303963 105.11522022 660.94943001 105.11866951 654.56845284 C105.1238217 645.08009478 105.13467412 635.59174928 105.14674895 626.10339781 C105.16691857 610.14282475 105.1826106 594.18225028 105.19590759 578.22167015 C105.21411946 556.43400341 105.23882663 534.64634746 105.2652815 512.85868935 C105.27759098 502.7137502 105.28958222 492.56881067 105.30149078 482.42387104 C105.30268331 481.40827099 105.30387583 480.39267094 105.30510449 479.34629514 C105.3334198 455.16893543 105.35862017 430.99157264 105.38330078 406.81420898 C105.38492258 405.2271859 105.38492258 405.2271859 105.38657714 403.60810173 C105.40412172 386.435472 105.42147746 369.26284207 105.43880212 352.09021211 C105.45504483 335.99104952 105.47135288 319.891887 105.48779297 303.79272461 C105.48887244 302.73451119 105.4899519 301.67629777 105.49106408 300.58601727 C105.51571094 276.44099382 105.54124805 252.29597175 105.56960297 228.15095234 C105.57079322 227.13711267 105.57198347 226.12327299 105.57320979 225.07871091 C105.5851104 214.95942781 105.597168 204.84014492 105.60945999 194.72086229 C105.63586767 172.95247797 105.65951318 151.18409555 105.67763339 129.41570265 C105.69087815 113.55427533 105.70751073 97.69285475 105.72772849 81.83143475 C105.73963465 72.39569331 105.74868404 62.95995872 105.75377446 53.5242111 C105.75743537 47.23354142 105.76465867 40.94288257 105.77485878 34.65222011 C105.78057563 31.06020121 105.78465182 27.46819976 105.78438765 23.8761759 C105.78413721 20.02023493 105.79148035 16.16433107 105.79967499 12.30839825 C105.79836647 11.17525943 105.79705796 10.04212061 105.79570979 8.87464425 C105.79913427 7.85764151 105.80255876 6.84063877 105.80608702 5.79281777 C105.80695514 4.90959409 105.80782327 4.02637041 105.8087177 3.11638237 C105.93554688 1.12939453 105.93554688 1.12939453 106.93554688 0.12939453 C108.95504896 0.03004305 110.97805602 0.00139945 113 0 C114.94706848 -0.00472824 114.94706848 -0.00472824 116.93347168 -0.009552 C118.36124709 -0.00776222 119.78902219 -0.00571127 121.21679688 -0.00341797 C122.67028825 -0.00409105 124.12377952 -0.00506111 125.57727051 -0.00631714 C128.62720814 -0.00779393 131.67711654 -0.00564017 134.72705078 -0.00097656 C138.64485247 0.00472073 142.56258566 0.00144162 146.48038483 -0.00454903 C149.48285441 -0.00815515 152.48530764 -0.00701582 155.48777771 -0.00442123 C156.93273425 -0.00375211 158.37769226 -0.00457989 159.82264709 -0.00690079 C161.83879571 -0.00942812 163.8549495 -0.00489598 165.87109375 0 C167.59531555 0.00119339 167.59531555 0.00119339 169.35437012 0.00241089 C171.93554688 0.12939453 171.93554688 0.12939453 172.93554688 1.12939453 C173.03366458 2.6829346 173.0615335 4.24095182 173.06204671 5.79758716 C173.06480645 6.81566315 173.06756619 7.83373915 173.07040957 8.88266593 C173.06732659 10.5841858 173.06732659 10.5841858 173.06418133 12.3200798 C173.06593437 13.51777258 173.0676874 14.71546536 173.06949356 15.94945186 C173.07337094 19.30392645 173.07271174 22.65834686 173.07021579 26.0128193 C173.0685915 29.65103992 173.0727162 33.28925456 173.07612497 36.92747331 C173.08129484 43.31417099 173.08269343 49.70086109 173.08166885 56.08756065 C173.08014892 65.58514961 173.08429467 75.08273012 173.08954348 84.58031744 C173.09923552 102.53004145 173.10202845 120.47976261 173.10260054 138.42948893 C173.1030595 152.29281906 173.10511479 166.15614807 173.10830116 180.01947784 C173.10919868 184.00538516 173.11008849 187.99129248 173.11097604 191.97719979 C173.11130761 193.46346018 173.11130761 193.46346018 173.11164588 194.97974603 C173.11780417 222.86870829 173.12174606 250.75767017 173.1213026 278.64663315 C173.12127924 280.22526283 173.12127924 280.22526283 173.1212554 281.83578402 C173.12117229 287.17023622 173.12107324 292.50468842 173.12097069 297.83914062 C173.12095074 298.89863282 173.1209308 299.95812502 173.12091025 301.04972304 C173.12086981 303.19227986 173.12082801 305.33483668 173.12078486 307.4773935 C173.12017241 340.79548024 173.12767142 374.1135568 173.14135742 407.43164062 C173.15671821 444.8425893 173.16532358 482.25353128 173.1643942 519.66448331 C173.16431957 523.65416288 173.16427086 527.64384246 173.16423988 531.63352203 C173.16422823 532.61591903 173.16421657 533.59831602 173.16420457 534.61048262 C173.16417379 550.42339579 173.1705613 566.23630012 173.17917215 582.04921066 C173.1876496 597.94618154 173.18863792 613.84313949 173.18206283 629.74011138 C173.17836722 639.18442715 173.18019979 648.62870365 173.19000517 658.07301526 C173.19600445 664.38488857 173.19471024 670.69673345 173.18753467 677.00860546 C173.18365262 680.60300122 173.18287906 684.19732101 173.19099202 687.79171142 C173.19967044 691.67071641 173.19275894 695.54960792 173.18443584 699.42861557 C173.19188811 701.08799445 173.19188811 701.08799445 173.19949093 702.78089613 C173.09573526 725.67134531 166.31787124 745.77469635 149.93554688 762.12939453 C131.81618576 779.96215767 108.07990145 785.79163768 83.31054688 785.62939453 C82.20202362 785.62625244 82.20202362 785.62625244 81.07110596 785.62304688 C61.8912722 785.51145511 45.59567289 781.82535702 28.93554688 772.12939453 C28.06671875 771.62408203 27.19789063 771.11876953 26.30273438 770.59814453 C9.54693203 760.08927895 -0.6633898 744.71417011 -5.52148438 725.66455078 C-5.70066406 724.82794922 -5.87984375 723.99134766 -6.06445312 723.12939453 C-6.23805638 722.33290601 -6.41165964 721.53641749 -6.5905236 720.71579295 C-7.27391473 715.54432178 -7.20106506 710.42280893 -7.19029427 705.21186352 C-7.19247443 703.38861498 -7.19247443 703.38861498 -7.19469863 701.52853313 C-7.19772414 698.14751115 -7.19625995 694.76654458 -7.19292068 691.38552643 C-7.19038748 687.71001579 -7.1936425 684.03450957 -7.19616401 680.35899955 C-7.1997795 673.91493869 -7.19966379 667.4708862 -7.19711685 661.02682495 C-7.19333986 651.44466211 -7.19526522 641.86250636 -7.19832516 632.28034357 C-7.2035957 615.16965473 -7.20313267 598.05896962 -7.20024625 580.94828042 C-7.19773315 565.97777078 -7.19707284 551.00726251 -7.19826889 536.0367527 C-7.19834528 535.04468597 -7.19842166 534.05261924 -7.19850036 533.03048988 C-7.19881168 529.00367474 -7.19913008 524.97685961 -7.19946012 520.95004448 C-7.20252041 483.16191884 -7.1997434 445.37379557 -7.19436323 407.58567029 C-7.18961564 373.98492801 -7.19004364 340.38418952 -7.19482422 306.78344727 C-7.20017367 269.05798322 -7.20230524 231.33252128 -7.19921196 193.60705692 C-7.19889122 189.58902379 -7.19857838 185.57099066 -7.19826889 181.55295753 C-7.19818981 180.56356822 -7.19811074 179.5741789 -7.19802926 178.55480808 C-7.19688983 163.58720941 -7.19822567 148.61961225 -7.20074844 133.65201378 C-7.20360077 116.64408963 -7.20290764 99.63616981 -7.1974677 82.62824621 C-7.19452075 73.09918683 -7.19435505 63.5701368 -7.19811387 54.04107765 C-7.20034439 47.68820996 -7.19898237 41.33534982 -7.19460911 34.98248325 C-7.19221427 31.35493566 -7.19144994 27.72740673 -7.19501509 24.09985968 C-7.19880344 20.20580291 -7.19497862 16.31177618 -7.19029427 12.41771984 C-7.19263543 11.2733506 -7.1949766 10.12898137 -7.19738871 8.94993427 C-7.19488519 7.92289762 -7.19238167 6.89586096 -7.18980229 5.83770198 C-7.18973453 4.94574338 -7.18966677 4.05378478 -7.18959696 3.13479714 C-6.92032976 -1.18015092 -3.60229618 0.00249327 0 0 Z " fill="#ffffff" transform="translate(331.064453125,14.87060546875)"/>
<path d="M0 0 C0.81259277 -0.0066568 1.62518555 -0.0133136 2.46240234 -0.02017212 C4.17331711 -0.03022837 5.88427055 -0.03499134 7.59521484 -0.03466797 C10.1540161 -0.03900574 12.71103795 -0.07530092 15.26953125 -0.11328125 C40.52481202 -0.28789312 62.27792554 7.77265087 80.87109375 25.02734375 C94.48421436 38.59455164 101.27698317 57.14829244 101.31658131 76.22951257 C101.31366847 77.27037346 101.31075563 78.31123435 101.30775452 79.38363647 C101.30903615 81.05741566 101.30903615 81.05741566 101.31034368 82.76500857 C101.31199125 86.50530197 101.3064889 90.24555057 101.30102539 93.98583984 C101.30074334 96.66649476 101.30085757 99.34714693 101.3014679 102.02780151 C101.30199184 107.79974202 101.29885855 113.5716712 101.29323006 119.34360886 C101.28509754 127.68882596 101.28249804 136.0340376 101.28124207 144.37925823 C101.2790543 157.91934583 101.27240168 171.45942739 101.26293945 184.99951172 C101.25375821 198.15120412 101.24668086 211.30289488 101.24243164 224.45458984 C101.24216892 225.2654763 101.24190619 226.07636276 101.24163551 226.91182153 C101.24033046 230.97986509 101.23906675 235.04790867 101.23782361 239.11595225 C101.22745957 272.85595268 101.20902588 306.59594189 101.1875 340.3359375 C79.4075 340.3359375 57.6275 340.3359375 35.1875 340.3359375 C34.59036563 321.22763779 34.040289 302.20801477 34.0456543 283.10595703 C34.04260727 280.78251583 34.03908171 278.45907521 34.03512573 276.13563538 C34.02736436 271.21268783 34.02214184 266.28974709 34.01883507 261.36679459 C34.01282757 253.57351816 33.99620704 245.78028505 33.97749329 237.98703003 C33.97432974 236.64851481 33.97117444 235.30999956 33.96802729 233.9714843 C33.96326407 231.94627257 33.95850072 229.92106083 33.95371684 227.89584915 C33.93592976 220.33519134 33.91962167 212.77453087 33.90454102 205.21386719 C33.90316514 204.52581064 33.90178927 203.83775409 33.90037171 203.12884735 C33.87831807 191.91498289 33.86764761 180.70112983 33.86017027 169.48724748 C33.85209136 157.90350715 33.82853467 146.31986826 33.7922166 134.73618209 C33.77250173 128.25960375 33.76003752 121.78319367 33.76505089 115.3065834 C33.7696952 109.23718286 33.75590355 103.16810393 33.72803879 97.09876823 C33.72113158 94.87762317 33.72099534 92.65644482 33.72823906 90.43530083 C33.73714751 87.39668216 33.72140264 84.35912028 33.69975281 81.32058716 C33.70819534 80.44938866 33.71663788 79.57819016 33.72533625 78.6805917 C33.61647387 70.38098607 30.81975739 61.56106408 25.1875 55.3359375 C18.73950339 51.66448035 12.38927653 49.98948138 5.08984375 51.87890625 C0.07119743 53.57680341 -4.26573238 55.59774077 -6.96875 60.3828125 C-10.68060048 68.28375138 -10.95873497 75.63266172 -10.94392776 84.23884773 C-10.94700672 85.89760162 -10.94700672 85.89760162 -10.95014787 87.58986568 C-10.95582688 91.31562834 -10.9543595 95.04135413 -10.95294189 98.76712036 C-10.95552501 101.45724242 -10.95849917 104.1473615 -10.9619453 106.83748233 C-10.96952277 113.46846492 -10.97171823 120.09943945 -10.97227435 126.73042592 C-10.97318824 134.67233084 -10.9798565 142.61422831 -10.98662117 150.55613003 C-11.00268076 169.75124378 -11.00858433 188.94635673 -11.01336992 208.14147598 C-11.01570583 217.221778 -11.01930847 226.30207938 -11.0230653 235.38238091 C-11.03590053 266.46454065 -11.04661993 297.54670004 -11.0500679 328.62886238 C-11.05028953 330.57999438 -11.05051132 332.53112638 -11.05073325 334.48225837 C-11.05095389 336.43810375 -11.05117438 338.39394913 -11.0513947 340.34979451 C-11.05183725 344.27356092 -11.05228437 348.19732734 -11.05273438 352.12109375 C-11.05284377 353.0939596 -11.05295316 354.06682545 -11.05306586 355.06917209 C-11.05669678 386.61688859 -11.07261829 418.16458212 -11.09592474 449.71228982 C-11.12052011 483.06565376 -11.1342406 516.41900457 -11.13543582 549.77237785 C-11.13560727 553.43364899 -11.1358227 557.09492012 -11.13607025 560.75619125 C-11.13612602 561.65770044 -11.13618179 562.55920962 -11.13623925 563.48803727 C-11.13738992 577.99632395 -11.14841329 592.50458704 -11.16295731 607.01286576 C-11.17732282 621.59521014 -11.18055897 636.1775243 -11.17251733 650.75987382 C-11.1680614 659.42237948 -11.17192022 668.08478757 -11.18775584 676.7472804 C-11.19750974 682.53656563 -11.19632366 688.32578254 -11.18631961 694.11506715 C-11.18093053 697.41175946 -11.18187171 700.70822738 -11.19282833 704.00491132 C-11.20390443 707.56276983 -11.19644293 711.1201355 -11.1844368 714.67798042 C-11.19203199 715.69237875 -11.19962718 716.70677707 -11.20745254 717.75191474 C-11.13970378 727.05974163 -10.25027063 737.10956194 -3.40625 744.00390625 C1.51839897 748.11985061 6.86899718 749.49259459 13.1875 749.3359375 C19.65730985 748.21970565 25.02502737 745.44432458 29.1875 740.3359375 C32.6854207 733.22786093 33.77143321 726.53342138 33.69975281 718.6971283 C33.70654849 717.68518624 33.71334418 716.67324419 33.7203458 715.63063723 C33.73817247 712.27037692 33.72787003 708.91081951 33.7175293 705.55053711 C33.72463374 703.12807155 33.73350005 700.70561062 33.74398804 698.28315735 C33.76267699 693.07827651 33.76934955 687.8735295 33.76505089 682.66862297 C33.7589232 675.11509236 33.77591402 667.56174625 33.79846082 660.00825316 C33.83462945 647.71310706 33.8538191 635.41799744 33.86157227 623.12280273 C33.86910853 611.25006401 33.88216584 599.37735938 33.90454102 587.50463867 C33.90591171 586.77548022 33.90728241 586.04632177 33.90869465 585.2950676 C33.92388061 577.30262524 33.94065822 569.31018679 33.95851612 561.31774998 C33.96008809 560.61122419 33.96166006 559.90469841 33.96327967 559.17676275 C33.96484638 558.47271441 33.9664131 557.76866607 33.96802729 557.04328293 C33.96958804 556.34182748 33.97114878 555.64037202 33.97275683 554.91766035 C33.9759076 553.50924427 33.97908762 552.10082827 33.98229728 550.69241232 C34.00244065 541.8134305 34.01574808 532.93448005 34.02135694 524.05547702 C34.02523592 518.92893669 34.03287241 513.80240579 34.0411644 508.6758709 C34.0440821 506.3276128 34.04536956 503.9793519 34.04475212 501.63109207 C34.04135034 485.51099231 34.45863699 469.43973757 35.1875 453.3359375 C33.92945053 453.345681 32.67140106 453.3554245 31.37522888 453.36546326 C30.66757606 453.37094398 29.95992323 453.37642469 29.23082638 453.3820715 C27.7359761 453.39442226 26.24114844 453.40955405 24.74633789 453.42602539 C22.89316241 453.43317695 21.04000692 453.3862227 19.1875 453.3359375 C17.58698336 451.73542086 18.06018528 450.04747628 18.05810547 447.83203125 C18.05495331 446.87433838 18.05180115 445.91664551 18.04855347 444.92993164 C18.05158981 443.36746704 18.05158981 443.36746704 18.0546875 441.7734375 C18.05373077 440.71181396 18.05277405 439.65019043 18.05178833 438.55639648 C18.05110636 436.30680278 18.05296181 434.05720713 18.05712891 431.80761719 C18.0624769 428.35086679 18.05718446 424.89424633 18.05078125 421.4375 C18.05144203 419.25781221 18.05272318 417.0781245 18.0546875 414.8984375 C18.05266327 413.85679443 18.05063904 412.81515137 18.04855347 411.74194336 C18.05328171 410.30540405 18.05328171 410.30540405 18.05810547 408.83984375 C18.05890106 407.99236572 18.05969666 407.1448877 18.06051636 406.27172852 C18.1875 404.3359375 18.1875 404.3359375 19.1875 403.3359375 C21.74339888 403.24087698 24.27217972 403.21036989 26.82836914 403.22241211 C28.02827736 403.22219307 28.02827736 403.22219307 29.25242615 403.2219696 C31.90919665 403.22266895 34.56589793 403.23046232 37.22265625 403.23828125 C39.05968691 403.24014535 40.89671806 403.24156929 42.73374939 403.24256897 C47.57859662 403.24639475 52.42341408 403.25622554 57.26824951 403.26727295 C62.20812578 403.27748578 67.14800685 403.28206631 72.08789062 403.28710938 C81.78777353 403.29784776 91.48763429 403.3149249 101.1875 403.3359375 C101.25625136 444.19484548 101.309072 485.05374588 101.34069599 525.9127002 C101.34444785 530.74266286 101.34833085 535.5726254 101.35229492 540.40258789 C101.35308185 541.36409718 101.35386878 542.32560648 101.35467956 543.31625242 C101.36771338 558.86001496 101.39135602 574.40374403 101.41895839 589.94748675 C101.44706901 605.91125193 101.46368819 621.87499965 101.46976548 637.83878857 C101.47387022 647.67962863 101.48680806 657.52037405 101.5112494 667.36118496 C101.52717651 674.12055257 101.53188467 680.87987166 101.52800413 687.63925665 C101.52609338 691.5319647 101.5289045 695.42450802 101.54511642 699.31718636 C101.65793793 727.85566284 100.23588584 755.18361519 79.4921875 777.21875 C57.29865751 797.60670467 29.2115357 801.89469058 0.1980896 800.72590637 C-23.53767279 799.50354317 -43.87806016 790.01318906 -60.21875 772.90234375 C-61.74517118 771.24126541 -61.74517118 771.24126541 -63.8125 770.3359375 C-65.68311477 767.4545344 -67.21097808 764.37330666 -68.8125 761.3359375 C-69.24046875 760.56765625 -69.6684375 759.799375 -70.109375 759.0078125 C-78.64305228 743.09935239 -78.38408144 727.82825469 -78.32043457 710.20362854 C-78.32283025 707.42623325 -78.33123824 704.64886317 -78.33934355 701.87147945 C-78.35374032 695.84603473 -78.35338302 689.82073356 -78.34315491 683.79528236 C-78.32798651 674.83499966 -78.33577984 665.8748374 -78.34798814 656.91455543 C-78.36902517 640.90861046 -78.36723582 624.90272944 -78.35567249 608.89677842 C-78.34560259 594.88892654 -78.34298703 580.88109809 -78.34776306 566.87324333 C-78.3480686 565.94337118 -78.34837414 565.01349902 -78.34868894 564.05544892 C-78.34993434 560.28060038 -78.35120794 556.50575185 -78.352528 552.73090334 C-78.36475905 517.33275669 -78.35367818 481.93465074 -78.33214041 446.53651037 C-78.31316011 415.10268759 -78.31485576 383.66892964 -78.33398438 352.23510742 C-78.35541383 316.90241452 -78.36389 281.56975756 -78.35153532 246.23705906 C-78.35025249 242.46885519 -78.34900113 238.70065131 -78.34776306 234.93244743 C-78.34744675 234.00464951 -78.34713044 233.07685159 -78.34680455 232.12093858 C-78.34225901 218.1242261 -78.34756767 204.12753964 -78.35768127 190.13083076 C-78.36912688 174.21152747 -78.36624079 158.29229802 -78.3445583 142.37300391 C-78.33282997 133.46889559 -78.33202199 124.56494727 -78.347143 115.66084316 C-78.35613686 109.70695286 -78.35048658 103.75319037 -78.33312392 97.79931895 C-78.32364406 94.41112363 -78.32250108 91.02350431 -78.33474785 87.63527948 C-78.42117779 61.73241632 -78.42117779 61.73241632 -73.8125 49.3359375 C-73.53756226 48.59197914 -73.26262452 47.84802078 -72.97935534 47.08151823 C-65.36854286 28.4940387 -50.61273811 15.67837381 -32.8125 7.3359375 C-22.30689412 2.97218619 -11.39545504 0.03366839 0 0 Z " fill="#ffffff" transform="translate(77.8125,-0.3359375)"/>
<path d="M0 0 C1.09119141 0.00563965 2.18238281 0.0112793 3.30664062 0.01708984 C28.43077938 0.39224331 51.9609192 8.96489021 70.125 26.62109375 C82.76199188 39.96251255 89.9341679 56.85031321 89.87025452 75.2278595 C89.87153615 76.57571463 89.87153615 76.57571463 89.87284368 77.95079917 C89.87449081 80.96176725 89.86898963 83.97267963 89.86352539 86.98364258 C89.86324333 89.14198811 89.86340163 91.30033373 89.8639679 93.4586792 C89.86425512 99.31977483 89.85837039 105.18085005 89.85139394 111.04194093 C89.84514804 117.16652463 89.84455562 123.29110879 89.84336853 129.41569519 C89.84025887 141.01426249 89.83205038 152.61282037 89.82201904 164.21138352 C89.81084659 177.41560008 89.80534459 190.61981709 89.80032361 203.82403719 C89.78986748 230.98686455 89.77152652 258.149679 89.75 285.3125 C67.97 285.3125 46.19 285.3125 23.75 285.3125 C23.72494385 280.71812012 23.6998877 276.12374023 23.67407227 271.39013672 C23.58946691 255.97173147 23.5009852 240.5533501 23.41066074 225.13497734 C23.35614763 215.81427811 23.30285978 206.49357524 23.25268555 197.17285156 C23.12553367 173.65799253 22.97529241 150.14346035 22.77008533 126.62914085 C22.75045246 124.36468724 22.73142264 122.10022919 22.71248627 119.83576965 C22.64525112 111.92589342 22.56136887 104.01654718 22.44907951 96.10715103 C22.41839948 93.82639597 22.39241434 91.54557194 22.37158394 89.26470566 C22.34224778 86.19447725 22.29476042 83.12507739 22.24194336 80.05517578 C22.2350351 78.75300047 22.2350351 78.75300047 22.22798729 77.42451859 C22.0819256 70.82508423 21.07722431 64.28479714 16.91796875 58.97265625 C10.56391075 53.84679881 5.51242958 51.8018626 -2.72265625 52 C-8.35476922 52.69639728 -12.06317431 55.15204821 -16.0625 59.0625 C-41.36743586 96.65840471 -11.52670316 188.80836151 -3.69133759 229.05477142 C0.57150511 250.86198225 5.00180212 272.63556116 9.49606323 294.39610481 C11.51331319 304.16612739 13.46089352 313.9432076 15.29296875 323.75 C21.08553197 354.26987087 31.00547637 382.99745724 41.59661865 412.13568115 C44.3895641 419.82843756 47.14220705 427.53568633 49.875 435.25 C50.26242874 436.342556 50.26242874 436.342556 50.65768433 437.45718384 C60.09634419 464.17167823 67.43346394 491.48611207 72.75 519.3125 C72.87656982 519.97397034 73.00313965 520.63544067 73.13354492 521.31695557 C78.47069342 549.47924056 81.48197656 577.9947135 84.55891418 606.47415161 C85.24928641 612.84555345 85.96898626 619.21000321 86.77227783 625.56816101 C89.49753206 647.20439738 90.16067094 668.74443852 90.24040604 690.5294838 C90.24986518 692.71879525 90.26547919 694.90799276 90.28219604 697.09725952 C90.53448331 735.39711662 90.53448331 735.39711662 82 750.8125 C81.65565918 751.46355713 81.31131836 752.11461426 80.95654297 752.78540039 C70.42317168 772.09658108 52.99875659 783.80862405 32.4453125 790.33984375 C31.22585938 790.66082031 30.00640625 790.98179687 28.75 791.3125 C28.06647461 791.49651367 27.38294922 791.68052734 26.67871094 791.87011719 C18.46411773 793.81704866 10.14085503 793.70841241 1.75 793.6875 C0.97098328 793.68728851 0.19196655 793.68707703 -0.61065674 793.68685913 C-12.27328406 793.65520227 -23.10406146 793.01973608 -34.25 789.3125 C-35.4153125 788.93867187 -36.580625 788.56484375 -37.78125 788.1796875 C-53.95774541 782.47255945 -69.02946477 772.08483637 -78.25 757.3125 C-78.25 756.6525 -78.25 755.9925 -78.25 755.3125 C-78.91 754.9825 -79.57 754.6525 -80.25 754.3125 C-90.27611073 734.98640355 -90.40572489 714.96369027 -90.3828125 693.70703125 C-90.38383076 691.54328393 -90.38517172 689.37953674 -90.3868103 687.21578979 C-90.3895117 681.39355346 -90.38503641 675.57134378 -90.37857056 669.74911118 C-90.37499746 666.122423 -90.37338012 662.49573879 -90.37231445 658.86904907 C-90.35416688 609.01263881 -89.87721045 559.16453028 -89.25 509.3125 C-67.47 509.3125 -45.69 509.3125 -23.25 509.3125 C-23.220271 518.57876465 -23.220271 518.57876465 -23.18994141 528.03222656 C-23.12303062 548.44417044 -23.04548987 568.85606372 -22.96247292 589.26794815 C-22.91240003 601.64346334 -22.86595653 614.01897208 -22.828125 626.39453125 C-22.79513298 637.1839396 -22.75526204 647.97329712 -22.70720994 658.7626493 C-22.6820166 664.47289025 -22.66021427 670.1830978 -22.64665604 675.89337921 C-22.63377054 681.2744825 -22.61164676 686.65547081 -22.58261681 692.03651047 C-22.57359157 694.00522743 -22.56786269 695.97396288 -22.56578636 697.94269943 C-23.23507429 719.25753361 -23.23507429 719.25753361 -14.0625 737.625 C-8.06539706 741.22326176 -2.44783777 743.023971 4.546875 741.88671875 C10.64347339 740.29771172 15.38925656 737.78926709 18.75 732.3125 C22.12492624 725.18470166 22.18614262 718.78174561 22.1484375 710.97265625 C22.1525766 709.67417252 22.1567157 708.37568878 22.16098022 707.03785706 C22.16945577 703.54017811 22.15646595 700.04291711 22.13652039 696.54529572 C22.12495627 694.36676211 22.11834214 692.18826148 22.11291504 690.00970459 C22.04400917 666.34177267 21.17735603 642.86559139 18.75 619.3125 C18.60372871 617.84540502 18.45773104 616.37828272 18.31201172 614.91113281 C13.38045521 565.92776998 4.58526096 516.3208678 -11.44702148 469.65991211 C-12.4941828 466.59866066 -13.49052438 463.52174657 -14.4921875 460.4453125 C-19.22647459 445.98440246 -24.15121769 431.62086778 -29.5 417.375 C-55.75303108 347.39944135 -70.51295107 279.41529832 -80.94662476 205.45838928 C-81.22544225 203.48620638 -81.5072311 201.51444416 -81.78930664 199.54272461 C-82.46246019 194.82280168 -83.1056826 190.09893105 -83.75 185.375 C-83.88019531 184.42431641 -84.01039063 183.47363281 -84.14453125 182.49414062 C-84.78583728 177.79446862 -85.41109755 173.09420107 -85.98632812 168.38598633 C-86.17711232 166.88568062 -86.38055386 165.38696638 -86.59179688 163.8894043 C-89.83877054 140.78415838 -90.02814937 117.60741535 -90.25 94.3125 C-90.25754303 93.60408966 -90.26508606 92.89567932 -90.27285767 92.165802 C-90.52006714 66.80756015 -86.81009151 44.74672606 -68.57421875 25.58203125 C-50.32712096 7.76427694 -25.19172762 -0.13802606 0 0 Z " fill="#ffffff" transform="translate(738.25,6.6875)"/>
<path d="M0 0 C0.66992981 -0.00175232 1.33985962 -0.00350464 2.03009033 -0.00531006 C4.25519363 -0.00972838 6.48021809 -0.00679034 8.70532227 -0.00341797 C10.24609899 -0.00409109 11.78687562 -0.00506119 13.32765198 -0.00631714 C16.56170662 -0.00779415 19.79573371 -0.00563976 23.02978516 -0.00097656 C27.1806556 0.00471597 31.33146132 0.00144477 35.48232937 -0.00454903 C38.66584259 -0.00815862 41.84934041 -0.00701413 45.03285408 -0.00442123 C46.56350779 -0.00375282 48.09416289 -0.00457741 49.62481499 -0.00690079 C51.76293527 -0.00943331 53.9009501 -0.00557802 56.0390625 0 C57.86654274 0.00119339 57.86654274 0.00119339 59.73094177 0.00241089 C62.58422852 0.12939453 62.58422852 0.12939453 64.58422852 1.12939453 C65.02189989 4.10614299 65.32452127 7.01019048 65.55609131 10.00570679 C65.63711181 10.95617915 65.7181323 11.90665151 65.80160797 12.88592607 C66.07515794 16.12312801 66.33493525 19.36129574 66.5949707 22.59960938 C66.78974593 24.93856895 66.98535866 27.27745892 67.1817379 29.61628437 C67.61154965 34.75858543 68.03533799 39.90134815 68.45407486 45.04456139 C69.08665174 52.81363588 69.73037651 60.58175967 70.37626173 68.34973767 C71.48502261 81.68845834 72.58477186 95.02790865 73.67974854 108.36776733 C74.78186796 121.7940878 75.88784415 135.22008153 76.9989624 148.6456604 C77.06854865 149.48648542 77.1381349 150.32731044 77.20982982 151.19361501 C77.56549284 155.49087122 77.92123413 159.78812095 78.27701306 164.08536756 C79.01582792 173.00934639 79.75410698 181.93336955 80.49221802 190.85740662 C80.56729119 191.76505518 80.64236436 192.67270375 80.71971248 193.60785682 C81.90202881 207.90340458 83.0818882 222.19915407 84.26046753 236.49501038 C84.42473497 238.48745911 84.58900271 240.47990782 84.75327075 242.4723565 C84.83526878 243.46693859 84.91726681 244.46152067 85.00174963 245.48624161 C89.57977179 301.01446411 94.18075623 356.54076608 98.78879452 412.06650519 C102.28044429 454.1400736 105.76929692 496.21387407 109.25807858 538.28768039 C110.34493912 551.39486189 111.43191606 564.50203371 112.51914978 577.60918427 C114.82667086 605.42809304 117.13300985 633.24709893 119.43565905 661.06641144 C120.49645246 673.88187987 121.55840116 686.69725134 122.62197238 699.51248954 C123.33770486 708.13793062 124.05194028 716.76349482 124.76494533 725.38916178 C125.17361551 730.33259918 125.58294898 735.2759793 125.99406195 740.2192142 C126.36852543 744.72196903 126.74111034 749.22487512 127.11216368 753.72791221 C127.24658384 755.35511998 127.38170329 756.98227017 127.51758192 758.6093568 C127.70141213 760.81185164 127.88272517 763.01453961 128.06339455 765.21729565 C128.16473564 766.44060343 128.26607673 767.66391121 128.37048876 768.92428893 C128.55253832 771.65418848 128.58422852 774.39343152 128.58422852 777.12939453 C107.79422852 777.12939453 87.00422852 777.12939453 65.58422852 777.12939453 C64.33815547 767.16081017 63.16578488 757.2800088 62.34741211 747.28198242 C62.23983078 745.99997452 62.13224945 744.71796661 62.02140808 743.39710999 C61.73109545 739.93448113 61.44503181 736.47151501 61.16022062 733.00842977 C60.98105882 730.8325316 60.80092816 728.65671578 60.62047195 726.48092461 C59.98809039 718.85597172 59.35918922 711.2307412 58.73364258 703.60522461 C58.15485281 696.55080764 57.56836352 689.49705942 56.97828233 682.44357878 C56.46793212 676.33899165 55.96304558 670.23396792 55.46225035 664.12858957 C55.16480891 660.50345328 54.86531702 656.87851846 54.56025314 653.25401497 C54.21971279 649.20536525 53.89056886 645.1558608 53.56225586 641.10620117 C53.46253983 639.93945862 53.36282379 638.77271606 53.26008606 637.57061768 C52.52585036 628.33595548 52.58422852 619.48407279 52.58422852 610.12939453 C38.06422852 610.12939453 23.54422852 610.12939453 8.58422852 610.12939453 C8.58422852 616.72939453 8.58422852 623.32939453 8.58422852 630.12939453 C8.38944855 635.2497368 8.16316846 640.35004747 7.86572266 645.46337891 C7.78806541 646.86866244 7.71088738 648.27397251 7.63414001 649.67930603 C7.42842253 653.42030432 7.21589754 657.16088454 7.00172734 660.90140724 C6.77704788 664.84304638 6.55820527 668.78501056 6.33848572 672.72692871 C5.96993579 679.32305847 5.59697302 685.91892694 5.22119141 692.51464844 C4.78718403 700.13318738 4.35997122 707.75208465 3.93635088 715.37120771 C3.52671534 722.73655398 3.11270439 730.10164774 2.69656181 737.46662903 C2.5201793 740.58926513 2.34526387 743.71197825 2.17152596 746.83476257 C1.96743014 750.49919199 1.75948476 754.16338322 1.54854774 757.827425 C1.43524813 759.81111039 1.32573988 761.79501118 1.21633911 763.77891541 C1.14765121 764.95873489 1.07896332 766.13855438 1.00819397 767.35412598 C0.95012101 768.37899361 0.89204805 769.40386124 0.83221531 770.45978546 C0.58422852 773.12939453 0.58422852 773.12939453 -0.41577148 777.12939453 C-22.52577148 777.12939453 -44.63577148 777.12939453 -67.41577148 777.12939453 C-67.08577148 770.52939453 -66.75577148 763.92939453 -66.41577148 757.12939453 C-66.14220763 750.6651226 -66.14220763 750.6651226 -65.89819336 744.19970703 C-65.66734839 738.7988059 -65.12766172 733.4582124 -64.49851608 728.09113121 C-63.32478392 717.77629912 -62.50497054 707.44316622 -61.71295166 697.09317017 C-61.55234277 695.02388056 -61.3914688 692.95461151 -61.23035598 690.88536108 C-60.79174504 685.24231357 -60.35685269 679.59898492 -59.92260432 673.95560026 C-59.45148776 667.84181724 -58.97685927 661.7283067 -58.50267029 655.61476135 C-57.67955104 644.9964442 -56.85860976 634.37796073 -56.0391922 623.75935745 C-55.17146451 612.51487891 -54.30241004 601.27050411 -53.43169403 590.02625656 C-53.34968754 588.96723004 -53.34968754 588.96723004 -53.26602436 587.88680904 C-52.98797008 584.29612548 -52.70989239 580.70544373 -52.43180534 577.11476271 C-50.45776857 551.62535797 -48.48647418 526.13574182 -46.5168457 500.64599609 C-44.63879765 476.34154246 -42.75978822 452.03716355 -40.87915039 427.73291016 C-40.82206725 426.99519837 -40.76498411 426.25748658 -40.70617118 425.49741988 C-40.01676955 416.58801394 -39.32731597 407.67861202 -38.63784241 398.76921164 C-38.00911815 390.64478763 -37.38044564 382.52035961 -36.75177765 374.39593124 C-36.69535513 373.66677003 -36.63893261 372.93760881 -36.58080031 372.1863518 C-36.23938009 367.77409949 -36.23938009 367.77409949 -35.89796031 363.36184715 C-35.55783892 358.96637661 -35.21771288 354.57090643 -34.87758287 350.17543656 C-33.41801256 331.31353714 -31.95860426 312.45162518 -30.49932471 293.58970326 C-28.00328611 261.32714991 -25.50680442 229.06463088 -23.00964737 196.80216408 C-22.61729114 191.7330471 -22.22495506 186.66392857 -21.83263779 181.59480858 C-19.73431254 154.48263716 -17.63497265 127.37054525 -15.53072429 100.25883281 C-14.77191217 90.48187839 -14.01362866 80.7048839 -13.25708771 70.92775345 C-12.63761846 62.92208957 -12.0169165 54.91652262 -11.39444643 46.91109148 C-11.08461174 42.92596831 -10.77535335 38.94080284 -10.4677496 34.9555068 C-10.19027481 31.36075421 -9.91106799 27.76614056 -9.63045642 24.1716315 C-9.48319102 22.27951184 -9.337771 20.38724882 -9.19242883 18.49498045 C-7.743207 0.00505981 -7.743207 0.00505981 0 0 Z M29.58422852 188.12939453 C27.41397714 232.57215045 25.2478224 277.0151044 23.08712992 321.45832613 C22.83179773 326.71017458 22.57643177 331.96202139 22.32104492 337.21386719 C22.27020447 338.25937601 22.21936402 339.30488482 22.16698295 340.38207573 C21.34466216 357.29103892 20.51960813 374.19986768 19.69353658 391.108648 C18.84541138 408.47009637 18.00024064 425.83168676 17.15778875 443.19341135 C16.63823265 453.89880834 16.11639686 464.60408913 15.59160602 475.3092308 C15.23152427 482.65901539 14.8743231 490.00893652 14.51934206 497.35896921 C14.31472781 501.59385762 14.10888703 505.82867654 13.89961052 510.06333733 C13.70750407 513.95113876 13.51906905 517.83910128 13.33338112 521.7272144 C13.26609074 523.12324867 13.19752838 524.51922244 13.12746054 525.91512007 C12.63851428 535.67628002 12.58422852 545.33744832 12.58422852 555.12939453 C24.13422852 555.12939453 35.68422852 555.12939453 47.58422852 555.12939453 C47.7352396 535.17155877 47.22318182 515.34626588 46.26085877 495.41788769 C46.06381228 491.30673306 45.87448884 487.1952206 45.68405151 483.08375549 C45.31203963 475.07886257 44.93296545 467.07432007 44.55105509 459.06989388 C44.24094492 452.56848749 43.93324519 446.06697114 43.62719345 439.56537247 C43.58336512 438.63444689 43.53953678 437.70352132 43.49438032 436.74438588 C43.4053177 434.85261139 43.31625717 432.96083681 43.22719871 431.06906213 C42.39627383 413.4259069 41.55686163 395.78316322 40.71474455 378.14053918 C39.94429874 361.99392613 39.18451225 345.84683171 38.42964758 329.69948338 C37.65263168 313.08027959 36.86862626 296.4614193 36.07693279 279.84290802 C35.63327432 270.52748546 35.19239286 261.21195142 34.75882339 251.89605331 C34.39066304 243.98728159 34.01592104 236.078856 33.63251461 228.17080812 C33.43708883 224.13624126 33.24477478 220.10158785 33.06064606 216.06648827 C32.89227934 212.3785647 32.71525237 208.69116576 32.53111111 205.0039971 C32.434766 203.02875081 32.34783228 201.05305253 32.26116097 199.07735813 C32.17158633 197.33642987 32.17158633 197.33642987 32.0802021 195.56033134 C32.03235734 194.55254281 31.98451258 193.54475427 31.93521798 192.50642669 C31.79854155 189.94621988 31.79854155 189.94621988 29.58422852 188.12939453 Z " fill="#ffffff" transform="translate(1024.415771484375,14.87060546875)"/>
<path d="M0 0 C21.45 0 42.9 0 65 0 C65 256.41 65 512.82 65 777 C43.22 777 21.44 777 -1 777 C-1.00810491 741.52497755 -1.00810491 741.52497755 -1.0111084 727.76513672 C-1.01129539 726.90859741 -1.01148239 726.0520581 -1.01167505 725.16956305 C-1.02403316 668.47904473 -1.03520616 611.78852645 -1.04234314 555.0980072 C-1.0424812 554.00418893 -1.04261925 552.91037065 -1.04276149 551.78340637 C-1.04575403 528.01481213 -1.04852427 504.24621787 -1.05106533 480.47762359 C-1.05231272 468.82240335 -1.05360927 457.16718312 -1.05493164 445.51196289 C-1.0550624 444.35209572 -1.05519316 443.19222855 -1.05532788 441.99721389 C-1.05959325 404.36679874 -1.06710755 366.73638509 -1.07629722 329.10597086 C-1.08571955 290.45288103 -1.09188306 251.79979204 -1.09391499 213.14670109 C-1.09420317 207.69383891 -1.0945288 202.24097673 -1.09487724 196.78811455 C-1.09494467 195.7148572 -1.09501209 194.64159985 -1.09508156 193.53581955 C-1.0962657 176.22252294 -1.10091029 158.90922889 -1.10683203 141.59593332 C-1.11270452 124.21253615 -1.1149717 106.82914152 -1.11350138 89.44574339 C-1.11273774 79.10354098 -1.11479564 68.76134786 -1.12079754 58.41914712 C-1.1245275 51.52404974 -1.12467782 44.62895849 -1.12183181 37.7338607 C-1.12031166 33.79650975 -1.12042887 29.85917643 -1.12488318 25.92182732 C-1.12962874 21.69524733 -1.12676681 17.46870841 -1.12304783 13.24212742 C-1.12567484 11.99978237 -1.12830186 10.75743732 -1.13100848 9.47744545 C-1.12876118 8.36286641 -1.12651389 7.24828737 -1.1241985 6.09993321 C-1.12443247 4.6476756 -1.12443247 4.6476756 -1.12467116 3.16607947 C-1 1 -1 1 0 0 Z " fill="#ffffff" transform="translate(1291,15)"/>
</svg>
